<mxfile host="app.diagrams.net" modified="2024-06-28T07:55:38.062Z" agent="Mozilla/5.0 (Windows NT 10.0; Win64; x64) AppleWebKit/537.36 (KHTML, like Gecko) Chrome/126.0.0.0 Safari/537.36" version="24.5.3" etag="6wTb9OCTg5Svail24EIJ" type="github">
  <diagram name="Page-1" id="92S_KzczbCEdf1gsdTc2">
    <mxGraphModel>
      <root>
        <mxCell id="0" />
        <mxCell id="1" parent="0" />
        <mxCell id="2" value="Video Operations" style="whiteSpace=wrap;strokeWidth=2;verticalAlign=top;" vertex="1" parent="1">
          <mxGeometry x="697" y="6" width="188" height="206" as="geometry" />
        </mxCell>
        <mxCell id="3" value="Video Operations" style="whiteSpace=wrap;strokeWidth=2;" vertex="1" parent="1">
          <mxGeometry x="722" y="97" width="138" height="34" as="geometry" />
        </mxCell>
        <mxCell id="4" value="getstream API" style="whiteSpace=wrap;strokeWidth=2;verticalAlign=top;" vertex="1" parent="1">
          <mxGeometry x="483" y="124" width="164" height="104" as="geometry" />
        </mxCell>
        <mxCell id="5" value="getstream API" style="whiteSpace=wrap;strokeWidth=2;" vertex="1" parent="1">
          <mxGeometry x="508" y="159" width="114" height="34" as="geometry" />
        </mxCell>
        <mxCell id="6" value="Database" style="whiteSpace=wrap;strokeWidth=2;verticalAlign=top;" vertex="1" parent="1">
          <mxGeometry x="483" width="164" height="104" as="geometry" />
        </mxCell>
        <mxCell id="7" value="MongoDB" style="whiteSpace=wrap;strokeWidth=2;" vertex="1" parent="1">
          <mxGeometry x="525" y="35" width="80" height="34" as="geometry" />
        </mxCell>
        <mxCell id="8" value="Backend" style="whiteSpace=wrap;strokeWidth=2;verticalAlign=top;" vertex="1" parent="1">
          <mxGeometry x="242" y="6" width="191" height="206" as="geometry" />
        </mxCell>
        <mxCell id="9" value="Node.js + Express" style="whiteSpace=wrap;strokeWidth=2;" vertex="1" parent="1">
          <mxGeometry x="267" y="97" width="141" height="34" as="geometry" />
        </mxCell>
        <mxCell id="10" value="User" style="whiteSpace=wrap;strokeWidth=2;verticalAlign=top;" vertex="1" parent="1">
          <mxGeometry y="62" width="192" height="104" as="geometry" />
        </mxCell>
        <mxCell id="11" value="Frontend: Next.js" style="whiteSpace=wrap;strokeWidth=2;" vertex="1" parent="1">
          <mxGeometry x="25" y="97" width="142" height="34" as="geometry" />
        </mxCell>
        <mxCell id="12" value="" style="curved=1;startArrow=none;endArrow=block;exitX=1;exitY=0.49;entryX=0;entryY=0.49;" edge="1" parent="1" source="11" target="9">
          <mxGeometry relative="1" as="geometry">
            <Array as="points" />
          </mxGeometry>
        </mxCell>
        <mxCell id="13" value="" style="curved=1;startArrow=none;endArrow=block;exitX=0.68;exitY=0;entryX=0;entryY=0.5;" edge="1" parent="1" source="9" target="7">
          <mxGeometry relative="1" as="geometry">
            <Array as="points">
              <mxPoint x="433" y="52" />
            </Array>
          </mxGeometry>
        </mxCell>
        <mxCell id="14" value="" style="curved=1;startArrow=none;endArrow=block;exitX=0.68;exitY=0.99;entryX=0;entryY=0.49;" edge="1" parent="1" source="9" target="5">
          <mxGeometry relative="1" as="geometry">
            <Array as="points">
              <mxPoint x="433" y="176" />
            </Array>
          </mxGeometry>
        </mxCell>
        <mxCell id="15" value="" style="curved=1;dashed=1;dashPattern=2 3;startArrow=none;endArrow=block;exitX=1;exitY=0.5;entryX=0.32;entryY=0;" edge="1" parent="1" source="7" target="3">
          <mxGeometry relative="1" as="geometry">
            <Array as="points">
              <mxPoint x="697" y="52" />
            </Array>
          </mxGeometry>
        </mxCell>
        <mxCell id="16" value="" style="curved=1;startArrow=none;endArrow=block;exitX=1;exitY=0.49;entryX=0.32;entryY=0.99;" edge="1" parent="1" source="5" target="3">
          <mxGeometry relative="1" as="geometry">
            <Array as="points">
              <mxPoint x="697" y="176" />
            </Array>
          </mxGeometry>
        </mxCell>
      </root>
    </mxGraphModel>
  </diagram>
</mxfile>
